#N canvas 40 0 1458 770 10;
#X declare -stdpath extra/list-abs -stdpath extra/moocow -stdpath extra/zexy
;
#N canvas 848 46 562 553 build 0;
#X obj 80 42 inlet chars;
#X text -13 8 build each comma separated symbol;
#X text 181 272 send out symbol on comma;
#X obj 173 300 r \$0-reset;
#X obj 80 74 route bang;
#X obj 170 153 tgl 15 0 empty empty empty 17 7 0 10 #fcfcfc #000000
#000000 0 1;
#X obj 170 179 moses 1;
#X obj 185 379 list prepend;
#X obj 275 379 list;
#X obj 137 273 t b b;
#X msg 173 330 bang;
#X obj 164 406 list;
#X obj 137 236 spigot;
#X obj 242 108 r \$0-reset;
#X msg 242 133 0;
#X obj 137 107 sel 44 34;
#X msg 170 206 1;
#X msg 209 205 0;
#X obj 164 498 outlet symbol;
#X text 248 207 keep building list if we are inside a quoted string
;
#X obj 258 303 t a;
#X text 172 82 check for comma \, and quote ";
#X obj 3 40 inlet send;
#X obj 164 436 wchars2any 128 -1;
#X obj 164 468 l2s;
#X obj 112 172 bng 15 250 50 0 empty empty empty 17 7 0 10 #fcfcfc
#000000 #000000;
#X obj 57 102 bng 15 250 50 0 empty empty empty 17 7 0 10 #fcfcfc #000000
#000000;
#X connect 0 0 4 0;
#X connect 3 0 10 0;
#X connect 4 0 26 0;
#X connect 4 1 15 0;
#X connect 5 0 6 0;
#X connect 6 0 16 0;
#X connect 6 1 17 0;
#X connect 7 0 8 0;
#X connect 7 0 11 1;
#X connect 8 0 7 1;
#X connect 9 0 10 0;
#X connect 9 1 11 0;
#X connect 10 0 11 1;
#X connect 10 0 7 1;
#X connect 11 0 23 0;
#X connect 12 0 9 0;
#X connect 13 0 14 0;
#X connect 14 0 5 0;
#X connect 15 0 12 0;
#X connect 15 1 5 0;
#X connect 15 1 25 0;
#X connect 15 2 20 0;
#X connect 16 0 12 1;
#X connect 17 0 12 1;
#X connect 20 0 7 0;
#X connect 22 0 9 0;
#X connect 23 0 24 0;
#X connect 24 0 18 0;
#X restore 139 259 pd build symbol;
#N canvas 444 113 832 608 build 1;
#X obj 91 208 list prepend;
#X obj 182 208 list;
#X obj 56 240 list;
#X msg 17 174 bang;
#X obj 56 321 list trim;
#X obj 36 106 s \$0-done;
#X obj 17 42 inlet send;
#X obj 91 177 inlet symbols;
#X obj 113 377 outlet list;
#X obj 17 74 t b b b;
#X text 12 11 build each line;
#X obj 22 139 r \$0-reset;
#X obj 56 267 l2s;
#N canvas 991 616 373 196 default 0;
#X text 14 14 use comma as the default delimiter since it will never
be in the list (as opposed to spaces ...);
#X obj 16 162 outlet;
#X obj 16 135 symbol;
#X msg 16 80 44;
#X obj 16 54 loadbang;
#X text 72 80 sigh \, convert comma ascii code to a symbol;
#X obj 16 107 bytes2any;
#X connect 2 0 1 0;
#X connect 3 0 6 0;
#X connect 4 0 3 0;
#X connect 6 0 2 0;
#X restore 110 247 pd default delim;
#X text 116 270 convert symbols to nums;
#X obj 56 350 route bang;
#X obj 56 293 s2l;
#X obj 56 396 bng 15 250 50 0 empty empty empty 17 7 0 10 #fcfcfc #000000
#000000;
#X obj 114 438 bng 15 250 50 0 empty empty empty 17 7 0 10 #fcfcfc
#000000 #000000;
#X connect 0 0 1 0;
#X connect 0 0 2 1;
#X connect 1 0 0 1;
#X connect 2 0 12 0;
#X connect 3 0 2 1;
#X connect 3 0 1 0;
#X connect 4 0 15 0;
#X connect 6 0 9 0;
#X connect 7 0 0 0;
#X connect 9 0 3 0;
#X connect 9 1 5 0;
#X connect 9 2 2 0;
#X connect 11 0 3 0;
#X connect 12 0 16 0;
#X connect 13 0 12 1;
#X connect 13 0 16 1;
#X connect 15 0 17 0;
#X connect 15 1 8 0;
#X connect 15 1 18 0;
#X connect 16 0 4 0;
#X restore 64 286 pd build line;
#X obj 20 77 sel 10 13;
#X text 84 76 check for EOL and CR;
#X msg 45 344 bang;
#X obj 45 372 s \$0-reset;
#X obj 45 235 t b b b;
#X obj 20 -1 inlet bytes;
#X obj 64 316 outlet list;
#X text 129 359 danomatika.com | robotcowboy.com;
#X text 130 344 2011 Dan Wilcox GPL v3;
#X text 130 374 https://github.com/danomatika/rc-patches;
#X obj 153 317 outlet line read;
#X obj 20 197 spigot;
#X msg 53 160 1;
#X msg 87 159 0;
#X obj 53 138 loadbang;
#X obj 199 146 t b a;
#X text 78 193 ignore EOL if immediately after a CR ...;
#X obj 20 28 list-drip;
#N canvas 0 22 450 300 declares 0;
#X obj 22 18 declare -stdpath extra/list-abs -stdpath extra/moocow
-stdpath extra/zexy;
#X restore 270 22 pd declares;
#X obj 121 168 bng 8 250 50 0 empty empty empty 17 7 0 10 #fcfcfc #000000
#000000;
#X obj 27 171 bng 8 250 50 0 empty empty empty 17 7 0 10 #fcfcfc #000000
#000000;
#X obj 88 116 bng 8 250 50 0 empty empty empty 17 7 0 10 #fcfcfc #000000
#000000;
#X obj 36 116 bng 8 250 50 0 empty empty empty 17 7 0 10 #fcfcfc #000000
#000000;
#X obj 180 170 bng 8 250 50 0 empty empty empty 17 7 0 10 #fcfcfc #000000
#000000;
#X obj 210 171 bng 8 250 50 0 empty empty empty 17 7 0 10 #fcfcfc #000000
#000000;
#X obj 36 52 bng 8 250 50 0 empty empty empty 17 7 0 10 #fcfcfc #000000
#000000;
#X obj 238 212 bng 66 250 50 0 empty empty empty 17 7 0 10 #800040
#000000 #000000;
#X connect 0 0 1 1;
#X connect 1 0 8 0;
#X connect 2 0 13 0;
#X connect 2 1 6 0;
#X connect 2 1 15 0;
#X connect 2 1 24 0;
#X connect 2 2 17 0;
#X connect 2 2 23 0;
#X connect 4 0 5 0;
#X connect 6 0 4 0;
#X connect 6 0 12 0;
#X connect 6 1 1 0;
#X connect 6 2 0 0;
#X connect 7 0 19 0;
#X connect 13 0 6 0;
#X connect 13 0 28 0;
#X connect 14 0 13 1;
#X connect 14 0 22 0;
#X connect 15 0 13 1;
#X connect 15 0 21 0;
#X connect 16 0 14 0;
#X connect 17 0 14 0;
#X connect 17 0 25 0;
#X connect 17 1 0 1;
#X connect 17 1 26 0;
#X connect 19 0 2 0;
#X connect 19 0 27 0;
