#N canvas -104 158 1904 1001 10;
#X obj 249 8 cnv 15 914 724 empty empty empty 20 12 0 14 #ffffff #404040
0;
#X obj 916 365 cnv 15 158 110 empty empty empty 20 12 0 14 #f3f3f3
#404040 0;
#X obj 317 35 cnv 15 766 320 empty empty Data-input 20 12 0 14 #e2f4fc
#404040 0;
#X obj 317 359 cnv 15 766 320 empty empty Sonic-output 20 12 0 14 #e1ffe1
#404040 0;
#X obj 464 651 dac~ 1 2;
#X obj 611 128 r temp;
#X obj 611 215 r cloud;
#X obj 612 296 r rain;
#X obj 611 94 nbx 5 30 -1e+37 1e+37 0 0 empty empty Temperature(°C)
1 -15 0 18 #fcfcfc #000000 #000000 28.9355 256 0;
#X obj 611 183 nbx 5 30 -1e+37 1e+37 0 0 empty empty Cloud(%) 1 -15
0 18 #fcfcfc #000000 #000000 21.6364 256 0;
#X obj 612 264 nbx 5 30 -1e+37 1e+37 0 0 empty empty Rain 1 -15 0 18
#fcfcfc #000000 #000000 0 256 0;
#X obj 797 128 r temp-frequency;
#X obj 797 94 nbx 5 30 -1e+37 1e+37 0 0 empty empty Frequency(Hz) 1
-15 0 18 #fcfcfc #000000 #000000 628.555 256 0;
#X obj 896 528 pvu~;
#X obj 930 528 pvu~;
#X obj 904 552 vu 15 120 empty empty -1 -8 0 10 #404040 #000000 1 0
;
#X obj 797 180 nbx 5 30 -1e+37 1e+37 0 0 empty empty Frequency(Hz)
1 -15 0 18 #fcfcfc #000000 #000000 270.455 256 0;
#X obj 798 211 r cloud-frequency;
#N canvas 0 0 1920 1017 filters 0;
#X obj 402 319 outlet~;
#X obj 352 320 outlet~;
#X obj 322 37 inlet~;
#X obj 463 54 inlet~;
#X obj 382 217 freeverb~;
#X obj 133 28 bng 15 250 50 0 empty empty empty 17 7 0 10 #fcfcfc #000000
#000000;
#X obj 161 26 loadbang;
#X msg 227 166 width 1;
#X msg 295 166 wet 0.858586;
#X msg 393 166 dry 0.919192;
#X msg 147 166 damping 1;
#X msg 43 166 roomsize 0.85;
#X connect 2 0 4 0;
#X connect 3 0 4 1;
#X connect 4 0 1 0;
#X connect 4 1 0 0;
#X connect 5 0 10 0;
#X connect 5 0 11 0;
#X connect 5 0 9 0;
#X connect 5 0 8 0;
#X connect 5 0 7 0;
#X connect 6 0 11 0;
#X connect 6 0 10 0;
#X connect 6 0 9 0;
#X connect 6 0 8 0;
#X connect 6 0 7 0;
#X connect 7 0 4 0;
#X connect 8 0 4 0;
#X connect 9 0 4 0;
#X connect 10 0 4 0;
#X connect 11 0 4 0;
#X restore 354 588 pd filters;
#X obj 614 425 save-audio-2;
#N canvas 0 0 450 300 (subpatch) 0;
#X array waves 100 float 5 black black;
#A 0 -0.00911959 -0.00922331 -0.0092416 -0.00916913 -0.00902861 -0.00887843
-0.00884291 -0.00894338 -0.00916874 -0.0094575 -0.0097435 -0.00998693
-0.0101046 -0.0100144 -0.00977959 -0.00940213 -0.00898126 -0.00859332
-0.00825537 -0.00794928 -0.00765419 -0.00741215 -0.00715371 -0.00691009
-0.00666558 -0.00643963 -0.00615585 -0.00586645 -0.00558069 -0.00534854
-0.00521749 -0.00518006 -0.00524252 -0.00529579 -0.00525904 -0.00509994
-0.00490132 -0.00464218 -0.00431099 -0.00390252 -0.00344507 -0.00291279
-0.00226146 -0.00158327 -0.000946114 -0.00036545 0.000166919 0.000642645
0.00108481 0.00149588 0.00180046 0.00198867 0.00205813 0.00201767 0.00188948
0.00171614 0.00151551 0.00129799 0.00119764 0.00129653 0.00164771 0.00226863
0.00307822 0.00399925 0.00490108 0.00571478 0.00636098 0.00682478 0.00722509
0.00761271 0.00800798 0.00833973 0.00864075 0.00887146 0.00900838 0.00901063
0.00895522 0.0088694 0.00875494 0.00867297 0.00857121 0.00837734 0.0080856
0.00768961 0.00721488 0.00682919 0.00666255 0.00676613 0.0072051 0.0079617
0.00889191 0.00980271 0.0106169 0.0112394 0.0116278 0.0117389 0.0114853
0.0108981 0.0100587 0.00906456;
#X coords 0 1 99 -1 200 140 1;
#X restore 673 525 graph;
#X obj 573 645 tabwrite~ waves;
#X obj 573 622 metro 100;
#X obj 573 605 tgl 15 0 empty empty empty 17 7 0 10 #fcfcfc #000000
#000000 1 1;
#X obj 574 566 loadbang;
#N canvas 0 0 1920 984 read-data 1;
#X obj 299 2 cnv 15 274 147 empty empty empty 20 12 0 14 #e0e0e0 #404040
0;
#X obj 332 35 hsl 128 15 0 2000 0 0 empty empty read-speed 1 5 0 10
#fcfcfc #000000 #000000 3175 1;
#X floatatom 468 34 5 0 0 1 ms - -, f 5;
#X obj 258 188 bng 15 250 50 0 empty empty rewind 17 7 0 10 #fcfcfc
#000000 #000000;
#X msg 219 317 stop-reading;
#X obj 333 56 bng 25 250 50 0 empty \$0-stop-read start/stop\ read\ daily\ mean\ data
27 8 0 10 #5bcaff #000000 #000000;
#X obj 67 88 loadbang;
#X msg 109 110 500;
#N canvas 0 0 1920 984 daily-data 0;
#X obj 255 89 cnv 15 735 372 empty empty Weather-parameters 20 12 0
14 #e2f4fc #404040 0;
#X obj 727 352 s rain;
#X obj 661 319 s cloud;
#X obj 397 234 s temp;
#X obj 1234 -285 cnv 15 403 161 empty empty options 20 12 0 14 #e0e0e0
#404040 0;
#X obj 443 6 csv_file;
#N canvas 0 0 450 300 open-file 0;
#X obj 37 29 inlet bang;
#X obj 37 54 openpanel;
#X msg 37 79 read \$1;
#X obj 37 104 outlet bin;
#X connect 0 0 1 0;
#X connect 1 0 2 0;
#X connect 2 0 3 0;
#X restore 267 -15 pd open-file;
#X obj 267 -47 bng 15 250 50 0 empty empty open-file 17 7 0 10 #fcfcfc
#000000 #000000;
#X obj 442 37 t a f;
#X obj 442 62 list;
#X floatatom 463 259 5 0 0 0 temp_max - -, f 5;
#X msg 580 41 set \$1;
#X msg 580 66 12190;
#X obj 511 100 print line ends here;
#X msg 501 -83 bang;
#X msg 443 -48 rewind;
#X msg 443 -18 info;
#X floatatom 529 276 5 0 0 0 temp_min - -, f 5;
#X floatatom 596 296 5 0 0 0 humid_mean - -, f 5;
#X obj 568 -122 bng 15 250 50 0 empty empty empty 17 7 0 10 #fcfcfc
#000000 #000000;
#X floatatom 397 234 6 0 0 0 temp_mean - -, f 6;
#X floatatom 332 199 6 0 0 0 temp_feel - -, f 6;
#X floatatom 660 320 5 0 0 0 cloud_mean - -, f 5;
#X floatatom 725 352 5 0 0 0 rain_vol - -, f 5;
#X obj 332 165 packel 1 2 3 4 5 6 7 8 9 10, f 99;
#X floatatom 791 385 5 0 0 0 wnd_speed - -, f 5;
#X floatatom 857 410 5 0 0 0 wnd_dir - -, f 5;
#X floatatom 925 428 7 0 0 0 atm - -, f 7;
#X obj 646 -97 spigot;
#X obj 603 -128 f;
#X obj 646 -156 + 1;
#X floatatom 603 -103 5 0 0 0 - - -, f 5;
#X obj 646 -71 t b;
#X msg 601 -46 1;
#X obj 280 -154 bng 15 250 50 0 empty \$0-bang BANG 5 -9 0 10 #fcfcfc
#000000 #000000;
#X obj 425 -159 bng 15 250 50 0 empty empty replay -1 -9 0 10 #fcfcfc
#000000 #000000;
#X obj 570 -234 metro 2000;
#X obj 655 -246 inlet read speed;
#X obj 378 -201 inlet rewind;
#X obj 283 -201 inlet bang;
#X obj 570 -286 tgl 15 0 empty empty empty 17 7 0 10 #fcfcfc #000000
#000000 0 1;
#X obj 332 -88 t b;
#X obj 757 -113 sel 0 1;
#X msg 759 -41 set \$1;
#X obj 761 -8 t b a;
#X obj 759 -61 pack s;
#X obj 761 17 outlet;
#X msg 1256 -253 read Selangor_mean.csv;
#X text 1255 -228 can connect this one (daily data with only 153 data
points);
#X msg 1255 -195 read Selangor_hourly_4PD.csv;
#X text 1254 -172 can connect this one (hourly data with only 4291
data points);
#X obj 646 48 s \$0-stop-record;
#X obj 646 -131 >= 153;
#X obj 252 36 print rewind;
#X obj 772 52 s \$0-stop-read;
#X msg 713 -87 stop-reading;
#X msg 801 -88 start-reading;
#X msg 351 -105 read data/Selangor_mean.csv;
#X connect 5 0 8 0;
#X connect 5 1 11 0;
#X connect 5 2 13 0;
#X connect 6 0 5 0;
#X connect 7 0 6 0;
#X connect 8 0 9 0;
#X connect 9 0 24 0;
#X connect 11 0 12 0;
#X connect 14 0 5 0;
#X connect 15 0 5 0;
#X connect 15 0 35 0;
#X connect 15 0 53 0;
#X connect 16 0 5 0;
#X connect 20 0 3 0;
#X connect 22 0 2 0;
#X connect 23 0 1 0;
#X connect 24 0 21 0;
#X connect 24 1 20 0;
#X connect 24 2 10 0;
#X connect 24 3 17 0;
#X connect 24 4 18 0;
#X connect 24 5 22 0;
#X connect 24 6 23 0;
#X connect 24 7 25 0;
#X connect 24 8 26 0;
#X connect 24 9 27 0;
#X connect 28 0 32 0;
#X connect 29 0 30 0;
#X connect 29 0 31 0;
#X connect 30 0 29 1;
#X connect 30 0 52 0;
#X connect 31 0 28 0;
#X connect 32 0 33 0;
#X connect 32 0 51 0;
#X connect 32 0 54 0;
#X connect 33 0 29 0;
#X connect 33 0 15 0;
#X connect 34 0 57 0;
#X connect 36 0 14 0;
#X connect 36 0 19 0;
#X connect 36 0 29 0;
#X connect 37 0 36 1;
#X connect 38 0 15 0;
#X connect 39 0 34 0;
#X connect 40 0 36 0;
#X connect 40 0 42 0;
#X connect 41 0 40 0;
#X connect 42 0 55 0;
#X connect 42 1 56 0;
#X connect 43 0 44 0;
#X connect 44 0 46 0;
#X connect 44 1 46 0;
#X connect 45 0 43 0;
#X connect 52 0 28 1;
#X connect 55 0 45 0;
#X connect 56 0 45 0;
#X connect 57 0 5 0;
#X connect 57 0 41 0;
#X restore 222 218 pd daily-data;
#X obj 333 86 bng 25 250 50 0 empty \$0-stop-read1 load-file 26 12
0 10 #5bcaff #000000 #000000;
#X obj 235 254 outlet;
#X obj 398 282 csv_file;
#X obj 406 316 t a f;
#X obj 406 341 list;
#X obj 405 376 packel 1 2 3 4 5 6 7 8 9 10, f 99;
#X obj 383 256 openpanel;
#X connect 1 0 8 2;
#X connect 1 0 2 0;
#X connect 3 0 8 1;
#X connect 5 0 8 0;
#X connect 6 0 7 0;
#X connect 7 0 1 0;
#X connect 8 0 4 0;
#X connect 8 0 10 0;
#X connect 9 0 15 0;
#X connect 11 0 12 0;
#X connect 12 0 13 0;
#X connect 13 0 14 0;
#X connect 15 0 11 0;
#X coords 0 -1 1 1 241 116 1 315 9;
#X restore 344 89 pd read-data;
#X msg 343 220 stop-reading;
#X text 343 238 output messages;
#N canvas 0 0 1920 984 volume-ctrl 0;
#X obj 1360 220 cnv 15 658 569 empty empty sono-generator-rain 20 12
0 14 #ffcaca #404040 0;
#X obj 990 220 cnv 15 368 569 empty empty sono-generator-cloud 20 12
0 14 #ffdece #404040 0;
#X obj 619 220 cnv 15 368 569 empty empty sono-generator-temp 20 12
0 14 #ffffc1 #404040 0;
#X obj 632 14 cnv 15 297 185 empty empty basic-volume-ctrl 20 12 0
14 #e9e9e9 #404040 0;
#X obj 652 52 hsl 128 15 0 10 0 0 empty \$0-frequency multiply-frequency
1 5 0 10 #fcfcfc #000000 #000000 3299 1;
#X floatatom 789 52 5 0 0 0 - - -, f 5;
#X obj 785 260 bng 15 250 50 0 empty empty empty 17 7 0 10 #fcfcfc
#000000 #000000;
#X obj 652 68 hsl 128 15 0 1.5 0 0 empty \$0-master-volume master-volume
1 5 0 10 #aaffaa #000000 #000000 1185 1;
#X floatatom 789 68 5 0 0 0 - - -, f 5;
#X obj 656 768 outlet~;
#X obj 734 771 outlet~;
#X obj 514 35 loadbang;
#X msg 514 60 0.14;
#X msg 549 60 2.598;
#X obj 1000 742 *~;
#X obj 1049 762 outlet~;
#X obj 1120 762 outlet~;
#X obj 652 105 hsl 128 15 0 2 0 0 empty \$0-master-volume master-volume
1 5 0 10 #aaffaa #000000 #000000 1587 1;
#X floatatom 789 105 5 0 0 0 - - -, f 5;
#X obj 1163 61 loadbang;
#X msg 1163 86 0.25;
#X obj 1055 190 inlet cloud-adsr;
#X obj 1487 764 outlet~;
#X obj 1394 271 noise~;
#X obj 1383 345 *~ 0.007;
#X obj 1409 560 lop~ 12000;
#X obj 1467 287 lop~ 16;
#X obj 1467 312 *~ 300000;
#X obj 1443 333 bp~ 2.064 0.002;
#X obj 1443 358 *~ 3.2;
#X obj 1474 372 *~;
#X obj 1450 375 *~;
#X obj 1450 405 *~;
#X obj 1415 439 *~;
#X obj 1379 417 osc~;
#X obj 1403 367 *~ 344;
#X obj 1379 365 +~ 3000;
#X obj 1408 468 *~ 0.3;
#X obj 1408 493 hip~ 500;
#X obj 1410 521 hip~ 500;
#X obj 1410 546 *~ 0.01;
#X obj 1410 571 lop~ 10000;
#X obj 1410 596 *~ 0.01;
#X obj 1533 305 bp~ 2.064 0.002;
#X obj 1533 330 *~ 3.2;
#X obj 1626 353 *~;
#X obj 1626 383 *~;
#X obj 1626 413 *~;
#X obj 1591 447 *~;
#X obj 1555 425 osc~;
#X obj 1584 476 *~ 0.3;
#X obj 1584 501 hip~ 500;
#X obj 1586 529 hip~ 500;
#X obj 1586 554 *~ 0.01;
#X obj 1586 579 lop~ 10000;
#X obj 1586 604 *~ 0.02;
#X obj 1555 348 *~ 3000;
#X obj 1555 375 +~ 2000;
#X obj 1522 232 noise~;
#X obj 1692 484 *~ 0.3;
#X obj 1692 509 hip~ 500;
#X obj 1694 537 hip~ 500;
#X obj 1694 562 *~ 0.01;
#X obj 1694 587 lop~ 10000;
#X obj 1694 612 *~ 0.01;
#X obj 1759 357 *~;
#X obj 1759 387 *~;
#X obj 1759 417 *~;
#X obj 1688 429 osc~;
#X obj 1688 352 *~ 5000;
#X obj 1688 379 +~ 2800;
#X obj 1690 454 *~;
#X obj 1701 285 bp~ 2.064 0.002;
#X obj 1701 310 *~ 3.8;
#X obj 1635 266 noise~;
#X obj 1699 253 lop~ 1900;
#X obj 1791 339 *~;
#X obj 1791 364 bp~ 333 4;
#X obj 1791 389 *~ 0.4;
#X obj 1789 602 *~ 1;
#X obj 1854 348 /~;
#X obj 1854 373 hip~ 10000;
#X obj 1854 398 *~ 0.03;
#X obj 1853 424 *~;
#X obj 1853 449 clip~ 0 0.9;
#X obj 1857 538 vcf~ 3333 30;
#X obj 1950 539 init 20;
#X obj 1857 563 *~ 0.7;
#X obj 1890 512 clip~ 1000 10000;
#X obj 1886 484 +~ 1000;
#X obj 1551 285 lop~ 0.01;
#X obj 1409 670 *~;
#X obj 1482 669 vline~;
#X floatatom 1541 558 5 0 0 0 - - -, f 5;
#X obj 1509 556 > 1;
#X obj 1508 590 spigot;
#X obj 1508 615 bng 15 250 50 0 \$1-rain empty empty 17 7 0 10 #fcfcfc
#000000 #000000;
#X obj 1434 632 r rain;
#X obj 1412 756 *~;
#X obj 652 145 hsl 128 15 0 2 0 0 empty \$0-master-volume master-volume
1 5 0 10 #aaffaa #000000 #000000 3175 1;
#X floatatom 789 145 5 0 0 0 - - -, f 5;
#X msg 1482 640 1 300 \, 0 1500 1200;
#X obj 1165 122 loadbang;
#X msg 1165 147 0.5;
#X obj 1164 190 inlet rain-adsr;
#X text 647 176 temp;
#X text 756 176 cloud;
#X text 867 176 rain;
#X obj 1546 764 outlet~;
#X obj 787 325 bng 15 250 50 0 empty empty empty 17 7 0 10 #fcfcfc
#000000 #000000;
#X obj 828 278 t b;
#X obj 748 274 + 1;
#X obj 482 94 s multiply;
#X obj 482 116 s temp-master-volume;
#X obj 751 325 bng 15 250 50 0 empty empty empty 17 7 0 10 #fcfcfc
#000000 #000000;
#N canvas 0 0 450 300 filters 0;
#X obj 100 180 outlet~;
#X obj 182 184 outlet~;
#X obj 155 92 hip~ 1004;
#X obj 89 87 hip~ 1004;
#X obj 176 128 bp~ 2000 1.06;
#X obj 89 129 bp~ 2000 1.06;
#X obj 47 57 inlet~;
#X obj 171 41 inlet~;
#X connect 2 0 4 0;
#X connect 3 0 5 0;
#X connect 4 0 1 0;
#X connect 5 0 0 0;
#X connect 6 0 3 0;
#X connect 7 0 2 0;
#X restore 698 710 pd filters;
#X obj 748 303 cyclone/gate 3;
#X obj 824 325 bng 15 250 50 0 empty empty empty 17 7 0 10 #fcfcfc
#000000 #000000;
#X obj 827 53 vradio 10 0 0 3 empty empty oscillators 0 -10 0 10 #fcfcfc
#000000 #000000 0;
#X obj 482 137 s cloud-master-volume;
#X obj 1035 726 r cloud-master-volume;
#N canvas 2410 220 418 691 noise-fx 0;
#X obj 75 339 outlet~;
#X obj 74 230 noise~;
#X obj 74 280 bp~ 1485 3.68;
#X obj 74 255 hip~ 3087;
#X obj 202 197 hsl 100 10 0 2 0 0 empty empty Q 1 3 0 10 #ffffff #000000
#000000 7722 1;
#X floatatom 312 194 5 0 0 0 - - -, f 5;
#X obj 276 82 bng 15 250 50 0 empty empty empty 17 7 0 10 #fcfcfc #000000
#000000;
#X obj 240 81 bng 15 250 50 0 empty empty empty 17 7 0 10 #fcfcfc #000000
#000000;
#X msg 240 99 1;
#X obj 202 83 bng 15 250 50 0 empty empty empty 17 7 0 10 #fcfcfc #000000
#000000;
#X msg 202 101 1.56;
#X obj 202 140 pack 0 100;
#X obj 202 165 line;
#X obj 74 306 *~ 0.35;
#X obj 206 253 pack 0 100;
#X obj 206 276 line;
#X obj 206 310 hsl 100 10 0 1 0 0 empty empty noise-volume 1 3 0 10
#ffffff #000000 #000000 3465 1;
#X floatatom 316 306 5 0 0 0 - - -, f 5;
#X msg 206 228 0.35;
#X msg 242 226 0.85;
#X msg 278 226 0.9;
#X msg 276 99 0.45;
#N canvas 2227 297 434 317 cloud-param 0;
#X obj 97 52 r cloud;
#X floatatom 179 74 5 0 0 0 - - -, f 5;
#X floatatom 242 90 5 0 0 0 - - -, f 5;
#X floatatom 287 86 5 0 0 0 - - -, f 5;
#X obj 180 49 moses 30;
#X obj 241 66 moses 60;
#X obj 291 108 bng 15 250 50 0 empty empty empty 17 7 0 10 #fcfcfc
#000000 #000000;
#X obj 244 110 bng 15 250 50 0 empty empty empty 17 7 0 10 #fcfcfc
#000000 #000000;
#X obj 180 96 bng 15 250 50 0 empty empty empty 17 7 0 10 #fcfcfc #000000
#000000;
#X obj 180 119 outlet;
#X obj 239 141 outlet;
#X obj 292 151 outlet;
#X connect 0 0 4 0;
#X connect 4 0 1 0;
#X connect 4 0 8 0;
#X connect 4 1 5 0;
#X connect 5 0 2 0;
#X connect 5 0 7 0;
#X connect 5 1 3 0;
#X connect 5 1 6 0;
#X connect 6 0 11 0;
#X connect 7 0 10 0;
#X connect 8 0 9 0;
#X restore 193 42 pd cloud-param;
#X connect 1 0 3 0;
#X connect 2 0 13 0;
#X connect 3 0 2 0;
#X connect 4 0 5 0;
#X connect 4 0 2 2;
#X connect 6 0 21 0;
#X connect 6 0 20 0;
#X connect 7 0 8 0;
#X connect 7 0 19 0;
#X connect 8 0 11 0;
#X connect 9 0 10 0;
#X connect 9 0 18 0;
#X connect 10 0 11 0;
#X connect 11 0 12 0;
#X connect 12 0 4 0;
#X connect 13 0 0 0;
#X connect 14 0 15 0;
#X connect 15 0 16 0;
#X connect 16 0 17 0;
#X connect 16 0 13 1;
#X connect 18 0 14 0;
#X connect 19 0 14 0;
#X connect 20 0 14 0;
#X connect 21 0 11 0;
#X connect 22 0 9 0;
#X connect 22 1 7 0;
#X connect 22 2 6 0;
#X restore 1157 396 pd noise-fx;
#X obj 827 -30 loadbang;
#X msg 827 -5 0;
#N canvas 506 179 1176 862 temp-sine-gen 0;
#X obj 760 159 inlet bang;
#X obj 811 411 vline~;
#X obj 795 434 *~;
#X obj 786 475 *~;
#X obj 859 411 vline~;
#X obj 843 442 *~;
#X obj 841 477 *~;
#X msg 895 304 6.06061 143 \, 1.32222 726 22 \, 0 120 45;
#X msg 879 246 6.06061 143 \, 1.32222 726 22 \, 0 120 45;
#X obj 905 407 r temp-master-volume;
#X obj 1084 424 mtof;
#X floatatom 1084 449 5 0 0 0 - - -, f 5;
#X obj 1086 469 s temp-frequency;
#X obj 784 519 outlet~;
#X obj 856 508 outlet~;
#X obj 793 383 osc~;
#X obj 843 383 osc~;
#X obj 940 159 inlet temp-adsr;
#X obj 609 319 outlet bang;
#X obj 609 266 r temp;
#X obj 609 291 t b;
#X obj 653 159 inlet~;
#X obj 601 159 inlet~;
#X connect 0 0 8 0;
#X connect 0 0 7 0;
#X connect 1 0 2 1;
#X connect 2 0 3 0;
#X connect 3 0 13 0;
#X connect 4 0 5 1;
#X connect 5 0 6 0;
#X connect 6 0 14 0;
#X connect 7 0 4 0;
#X connect 8 0 1 0;
#X connect 9 0 6 1;
#X connect 9 0 3 1;
#X connect 10 0 11 0;
#X connect 11 0 12 0;
#X connect 15 0 2 0;
#X connect 16 0 5 0;
#X connect 17 0 8 0;
#X connect 17 0 7 0;
#X connect 19 0 20 0;
#X connect 20 0 18 0;
#X connect 21 0 16 0;
#X connect 22 0 15 0;
#X restore 659 493 pd temp-sine-gen;
#N canvas 2355 122 1105 790 temp-square-gen 0;
#X obj 93 436 outlet~;
#X obj 179 422 outlet~;
#X obj 224 -136 inlet bang;
#X obj 139 253 vline~;
#X obj 123 276 *~;
#X obj 114 317 *~;
#X obj 187 253 vline~;
#X obj 171 284 *~;
#X obj 169 319 *~;
#X msg 192 -13 6.06061 143 \, 1.32222 726 22 \, 0 120 45;
#X msg 176 -71 6.06061 143 \, 1.32222 726 22 \, 0 120 45;
#X obj 233 249 r temp-master-volume;
#X obj 102 89 expr~ $v1 > 0.5;
#X obj 154 122 expr~ $v1 > 0.5;
#X obj 90 66 phasor~;
#X obj 140 66 phasor~;
#X obj 292 -134 inlet temp-adsr;
#X obj 56 -32 inlet~;
#X obj 121 -36 inlet~;
#X obj 38 -80 outlet bang;
#X obj 38 -133 r temp;
#X obj 38 -108 t b;
#X connect 2 0 10 0;
#X connect 2 0 9 0;
#X connect 3 0 4 1;
#X connect 4 0 5 0;
#X connect 5 0 0 0;
#X connect 6 0 7 1;
#X connect 7 0 8 0;
#X connect 8 0 1 0;
#X connect 9 0 6 0;
#X connect 10 0 3 0;
#X connect 11 0 8 1;
#X connect 11 0 5 1;
#X connect 12 0 4 0;
#X connect 13 0 7 0;
#X connect 14 0 12 0;
#X connect 15 0 13 0;
#X connect 16 0 10 0;
#X connect 16 0 9 0;
#X connect 17 0 14 0;
#X connect 18 0 15 0;
#X connect 20 0 21 0;
#X connect 21 0 19 0;
#X restore 739 543 pd temp-square-gen;
#N canvas 1254 210 1904 1001 temp-saw-gen 0;
#X obj 238 74 inlet bang;
#X obj 122 304 vline~;
#X obj 106 327 *~;
#X obj 97 368 *~;
#X obj 170 304 vline~;
#X obj 154 335 *~;
#X obj 152 370 *~;
#X obj 154 276 saw~;
#X obj 104 276 saw~;
#X msg 206 197 6.06061 143 \, 1.32222 726 22 \, 0 120 45;
#X msg 190 139 6.06061 143 \, 1.32222 726 22 \, 0 120 45;
#X obj 216 300 r temp-master-volume;
#X obj 395 317 mtof;
#X floatatom 395 342 5 0 0 0 - - -, f 5;
#X obj 397 362 s temp-frequency;
#X obj 95 412 outlet~;
#X obj 167 401 outlet~;
#X obj 329 85 inlet adsr;
#X obj 63 158 inlet~;
#X obj 140 152 inlet~;
#X obj 60 92 outlet bang;
#X obj 60 39 r temp;
#X obj 60 64 t b;
#X connect 0 0 10 0;
#X connect 0 0 9 0;
#X connect 1 0 2 1;
#X connect 2 0 3 0;
#X connect 3 0 15 0;
#X connect 4 0 5 1;
#X connect 5 0 6 0;
#X connect 6 0 16 0;
#X connect 7 0 5 0;
#X connect 8 0 2 0;
#X connect 9 0 4 0;
#X connect 10 0 1 0;
#X connect 11 0 6 1;
#X connect 11 0 3 1;
#X connect 12 0 13 0;
#X connect 13 0 14 0;
#X connect 17 0 10 0;
#X connect 17 0 9 0;
#X connect 18 0 8 0;
#X connect 19 0 7 0;
#X connect 21 0 22 0;
#X connect 22 0 20 0;
#X restore 632 440 pd temp-saw-gen;
#X obj 1047 264 bng 15 250 50 0 empty empty empty 17 7 0 10 #fcfcfc
#000000 #000000;
#X obj 1063 315 bng 15 250 50 0 empty empty empty 17 7 0 10 #fcfcfc
#000000 #000000;
#X obj 1100 268 t b;
#X obj 1020 264 + 1;
#X obj 1023 315 bng 15 250 50 0 empty empty empty 17 7 0 10 #fcfcfc
#000000 #000000;
#X obj 1020 293 cyclone/gate 3;
#X obj 1096 315 bng 15 250 50 0 empty empty empty 17 7 0 10 #fcfcfc
#000000 #000000;
#X obj 826 106 vradio 10 0 0 3 empty empty oscillators 0 -10 0 10 #fcfcfc
#000000 #000000 1;
#X msg 872 -10 1;
#N canvas 2611 263 418 334 temp-frequencies 0;
#X obj 66 210 mtof~;
#X obj 66 178 sig~;
#X obj 80 24 r temp;
#X obj 80 57 expr $f1 * $f2;
#X obj 116 210 mtof~;
#X obj 116 178 sig~;
#X obj 127 21 r multiply;
#X obj 67 247 outlet~;
#X obj 123 246 outlet~;
#X obj 182 141 mtof;
#X floatatom 182 166 5 0 0 0 - - -, f 5;
#X obj 184 186 s temp-frequency;
#X connect 0 0 7 0;
#X connect 1 0 0 0;
#X connect 2 0 3 0;
#X connect 3 0 1 0;
#X connect 3 0 5 0;
#X connect 3 0 9 0;
#X connect 4 0 8 0;
#X connect 5 0 4 0;
#X connect 6 0 3 1;
#X connect 9 0 10 0;
#X connect 10 0 11 0;
#X restore 629 378 pd temp-frequencies;
#N canvas 2183 243 434 317 cloud-saw-gen 0;
#X obj 60 130 +~;
#X obj 60 242 *~;
#X obj 186 88 vline~;
#X obj 60 161 hip~ 2022;
#X obj 60 184 bp~ 2000 4;
#X msg 189 69 2.57576 65 \, 0.757576 373 13 \, 0.0606061 283 500;
#X obj 60 267 outlet~;
#X obj 52 12 inlet~;
#X obj 204 21 inlet bang;
#X obj 114 25 inlet~ noise;
#X obj 59 38 saw~ 0;
#X obj 149 203 hsl 100 10 0 4 0 0 empty empty Q 1 3 0 10 #ffffff #000000
#000000 9900 1;
#X floatatom 261 199 5 0 0 0 - - -, f 5;
#X msg 149 135 4;
#X obj 149 159 pack 0 100;
#X obj 149 184 line;
#X msg 185 135 3.67;
#X msg 220 135 3.3;
#N canvas 2227 297 434 317 cloud-param 0;
#X obj 97 52 r cloud;
#X floatatom 179 74 5 0 0 0 - - -, f 5;
#X floatatom 242 90 5 0 0 0 - - -, f 5;
#X floatatom 287 86 5 0 0 0 - - -, f 5;
#X obj 180 49 moses 30;
#X obj 241 66 moses 60;
#X obj 291 108 bng 15 250 50 0 empty empty empty 17 7 0 10 #fcfcfc
#000000 #000000;
#X obj 244 110 bng 15 250 50 0 empty empty empty 17 7 0 10 #fcfcfc
#000000 #000000;
#X obj 180 96 bng 15 250 50 0 empty empty empty 17 7 0 10 #fcfcfc #000000
#000000;
#X obj 180 119 outlet;
#X obj 239 141 outlet;
#X obj 292 151 outlet;
#X connect 0 0 4 0;
#X connect 4 0 1 0;
#X connect 4 0 8 0;
#X connect 4 1 5 0;
#X connect 5 0 2 0;
#X connect 5 0 7 0;
#X connect 5 1 3 0;
#X connect 5 1 6 0;
#X connect 6 0 11 0;
#X connect 7 0 10 0;
#X connect 8 0 9 0;
#X restore 154 114 pd cloud-param;
#X obj -7 219 r cloud;
#X obj -7 244 t b;
#X obj -7 269 outlet;
#X connect 0 0 3 0;
#X connect 1 0 6 0;
#X connect 2 0 1 1;
#X connect 3 0 4 0;
#X connect 4 0 1 0;
#X connect 5 0 2 0;
#X connect 7 0 10 0;
#X connect 8 0 5 0;
#X connect 9 0 0 1;
#X connect 10 0 0 0;
#X connect 11 0 12 0;
#X connect 11 0 4 2;
#X connect 13 0 14 0;
#X connect 14 0 15 0;
#X connect 15 0 11 0;
#X connect 16 0 14 0;
#X connect 17 0 14 0;
#X connect 18 0 13 0;
#X connect 18 1 16 0;
#X connect 18 2 17 0;
#X connect 19 0 20 0;
#X connect 20 0 21 0;
#X restore 1022 345 pd cloud-saw-gen;
#N canvas 231 275 418 334 cloud-frequencies 0;
#X obj 135 192 outlet~;
#X obj 140 52 r cloud;
#X obj 126 119 sig~;
#X obj 126 98 * 12.5;
#X obj 221 175 s cloud-frequency;
#X connect 1 0 3 0;
#X connect 2 0 0 0;
#X connect 3 0 2 0;
#X connect 3 0 4 0;
#X restore 1127 334 pd cloud-frequencies;
#N canvas 2183 243 434 317 cloud-sine-gen 0;
#X obj 60 130 +~;
#X obj 60 242 *~;
#X obj 186 88 vline~;
#X obj 60 161 hip~ 2022;
#X obj 60 184 bp~ 2000 4;
#X msg 189 69 2.57576 65 \, 0.757576 373 13 \, 0.0606061 283 500;
#X obj 60 267 outlet~;
#X obj 52 12 inlet~;
#X obj 204 21 inlet bang;
#X obj 114 25 inlet~ noise;
#X obj 149 203 hsl 100 10 0 4 0 0 empty empty Q 1 3 0 10 #ffffff #000000
#000000 9900 1;
#X floatatom 261 199 5 0 0 0 - - -, f 5;
#X msg 149 135 4;
#X obj 149 159 pack 0 100;
#X obj 149 184 line;
#X msg 185 135 3.67;
#X msg 220 135 3.3;
#N canvas 2227 297 434 317 cloud-param 0;
#X obj 97 52 r cloud;
#X floatatom 179 74 5 0 0 0 - - -, f 5;
#X floatatom 242 90 5 0 0 0 - - -, f 5;
#X floatatom 287 86 5 0 0 0 - - -, f 5;
#X obj 180 49 moses 30;
#X obj 241 66 moses 60;
#X obj 291 108 bng 15 250 50 0 empty empty empty 17 7 0 10 #fcfcfc
#000000 #000000;
#X obj 244 110 bng 15 250 50 0 empty empty empty 17 7 0 10 #fcfcfc
#000000 #000000;
#X obj 180 96 bng 15 250 50 0 empty empty empty 17 7 0 10 #fcfcfc #000000
#000000;
#X obj 180 119 outlet;
#X obj 239 141 outlet;
#X obj 292 151 outlet;
#X connect 0 0 4 0;
#X connect 4 0 1 0;
#X connect 4 0 8 0;
#X connect 4 1 5 0;
#X connect 5 0 2 0;
#X connect 5 0 7 0;
#X connect 5 1 3 0;
#X connect 5 1 6 0;
#X connect 6 0 11 0;
#X connect 7 0 10 0;
#X connect 8 0 9 0;
#X restore 154 114 pd cloud-param;
#X obj -7 219 r cloud;
#X obj -7 244 t b;
#X obj -7 269 outlet;
#X obj 59 38 osc~ 0;
#X connect 0 0 3 0;
#X connect 1 0 6 0;
#X connect 2 0 1 1;
#X connect 3 0 4 0;
#X connect 4 0 1 0;
#X connect 5 0 2 0;
#X connect 7 0 21 0;
#X connect 8 0 5 0;
#X connect 9 0 0 1;
#X connect 10 0 11 0;
#X connect 10 0 4 2;
#X connect 12 0 13 0;
#X connect 13 0 14 0;
#X connect 14 0 10 0;
#X connect 15 0 13 0;
#X connect 16 0 13 0;
#X connect 17 0 12 0;
#X connect 17 1 15 0;
#X connect 17 2 16 0;
#X connect 18 0 19 0;
#X connect 19 0 20 0;
#X connect 21 0 0 0;
#X restore 1023 387 pd cloud-sine-gen;
#N canvas 0 0 1920 1017 cloud-square-gen 0;
#X obj 60 130 +~;
#X obj 60 242 *~;
#X obj 186 88 vline~;
#X obj 60 161 hip~ 2022;
#X obj 60 184 bp~ 2000 4;
#X msg 189 69 2.57576 65 \, 0.757576 373 13 \, 0.0606061 283 500;
#X obj 60 267 outlet~;
#X obj 52 12 inlet~;
#X obj 204 21 inlet bang;
#X obj 114 25 inlet~ noise;
#X obj 149 203 hsl 100 10 0 4 0 0 empty empty Q 1 3 0 10 #ffffff #000000
#000000 9900 1;
#X floatatom 261 199 5 0 0 0 - - -, f 5;
#X msg 149 135 4;
#X obj 149 159 pack 0 100;
#X obj 149 184 line;
#X msg 185 135 3.67;
#X msg 220 135 3.3;
#N canvas 2227 297 434 317 cloud-param 0;
#X obj 97 52 r cloud;
#X floatatom 179 74 5 0 0 0 - - -, f 5;
#X floatatom 242 90 5 0 0 0 - - -, f 5;
#X floatatom 287 86 5 0 0 0 - - -, f 5;
#X obj 180 49 moses 30;
#X obj 241 66 moses 60;
#X obj 291 108 bng 15 250 50 0 empty empty empty 17 7 0 10 #fcfcfc
#000000 #000000;
#X obj 244 110 bng 15 250 50 0 empty empty empty 17 7 0 10 #fcfcfc
#000000 #000000;
#X obj 180 96 bng 15 250 50 0 empty empty empty 17 7 0 10 #fcfcfc #000000
#000000;
#X obj 180 119 outlet;
#X obj 239 141 outlet;
#X obj 292 151 outlet;
#X connect 0 0 4 0;
#X connect 4 0 1 0;
#X connect 4 0 8 0;
#X connect 4 1 5 0;
#X connect 5 0 2 0;
#X connect 5 0 7 0;
#X connect 5 1 3 0;
#X connect 5 1 6 0;
#X connect 6 0 11 0;
#X connect 7 0 10 0;
#X connect 8 0 9 0;
#X restore 154 114 pd cloud-param;
#X obj -7 219 r cloud;
#X obj -7 244 t b;
#X obj -7 269 outlet;
#X obj 52 90 expr~ $v1 > 0.5;
#X obj 52 67 phasor~;
#X connect 0 0 3 0;
#X connect 1 0 6 0;
#X connect 2 0 1 1;
#X connect 3 0 4 0;
#X connect 4 0 1 0;
#X connect 5 0 2 0;
#X connect 7 0 22 0;
#X connect 8 0 5 0;
#X connect 9 0 0 1;
#X connect 10 0 11 0;
#X connect 10 0 4 2;
#X connect 12 0 13 0;
#X connect 13 0 14 0;
#X connect 14 0 10 0;
#X connect 15 0 13 0;
#X connect 16 0 13 0;
#X connect 17 0 12 0;
#X connect 17 1 15 0;
#X connect 17 2 16 0;
#X connect 18 0 19 0;
#X connect 19 0 20 0;
#X connect 21 0 0 0;
#X connect 22 0 21 0;
#X restore 1065 431 pd cloud-square-gen;
#X text 838 48 sawtooth;
#X text 837 58 sine;
#X text 837 69 square;
#X text 837 103 sawtooth;
#X text 836 113 sine;
#X text 836 124 square;
#X text 652 130 rain-data;
#X text 652 90 cloud-data;
#X text 652 37 temperature-data;
#X connect 4 0 5 0;
#X connect 5 0 112 0;
#X connect 6 0 110 0;
#X connect 7 0 8 0;
#X connect 8 0 113 0;
#X connect 11 0 12 0;
#X connect 11 0 13 0;
#X connect 12 0 7 0;
#X connect 13 0 4 0;
#X connect 14 0 15 0;
#X connect 14 0 16 0;
#X connect 17 0 18 0;
#X connect 17 0 119 0;
#X connect 19 0 20 0;
#X connect 20 0 17 0;
#X connect 23 0 24 0;
#X connect 23 0 26 0;
#X connect 23 0 28 0;
#X connect 24 0 25 0;
#X connect 25 0 91 0;
#X connect 26 0 27 0;
#X connect 26 0 76 0;
#X connect 27 0 89 0;
#X connect 28 0 29 0;
#X connect 29 0 30 0;
#X connect 29 0 30 1;
#X connect 29 0 35 0;
#X connect 30 0 31 0;
#X connect 30 0 31 1;
#X connect 31 0 32 0;
#X connect 31 0 32 1;
#X connect 32 0 33 1;
#X connect 33 0 37 0;
#X connect 34 0 33 0;
#X connect 35 0 36 0;
#X connect 36 0 34 0;
#X connect 37 0 38 0;
#X connect 38 0 39 0;
#X connect 39 0 40 0;
#X connect 40 0 41 0;
#X connect 41 0 42 0;
#X connect 42 0 25 0;
#X connect 43 0 44 0;
#X connect 44 0 45 0;
#X connect 44 0 45 1;
#X connect 44 0 56 0;
#X connect 45 0 46 0;
#X connect 45 0 46 1;
#X connect 46 0 47 0;
#X connect 46 0 47 1;
#X connect 47 0 48 1;
#X connect 48 0 50 0;
#X connect 49 0 48 0;
#X connect 50 0 51 0;
#X connect 51 0 52 0;
#X connect 52 0 53 0;
#X connect 53 0 54 0;
#X connect 54 0 55 0;
#X connect 55 0 25 0;
#X connect 56 0 57 0;
#X connect 57 0 49 0;
#X connect 58 0 43 0;
#X connect 58 0 90 0;
#X connect 59 0 60 0;
#X connect 60 0 61 0;
#X connect 61 0 62 0;
#X connect 62 0 63 0;
#X connect 63 0 64 0;
#X connect 64 0 25 0;
#X connect 65 0 66 0;
#X connect 65 0 66 1;
#X connect 66 0 67 0;
#X connect 66 0 67 1;
#X connect 67 0 71 1;
#X connect 68 0 71 0;
#X connect 69 0 70 0;
#X connect 70 0 68 0;
#X connect 71 0 59 0;
#X connect 72 0 73 0;
#X connect 73 0 65 0;
#X connect 73 0 65 1;
#X connect 73 0 69 0;
#X connect 74 0 72 0;
#X connect 74 0 76 1;
#X connect 74 0 75 0;
#X connect 75 0 80 1;
#X connect 76 0 77 0;
#X connect 77 0 78 0;
#X connect 78 0 79 0;
#X connect 79 0 25 0;
#X connect 80 0 81 0;
#X connect 81 0 82 0;
#X connect 82 0 83 0;
#X connect 82 0 83 1;
#X connect 83 0 84 0;
#X connect 84 0 85 0;
#X connect 85 0 87 0;
#X connect 86 0 85 2;
#X connect 87 0 79 0;
#X connect 88 0 85 1;
#X connect 89 0 88 0;
#X connect 90 0 80 0;
#X connect 91 0 98 0;
#X connect 92 0 91 1;
#X connect 93 0 95 1;
#X connect 94 0 93 0;
#X connect 95 0 96 0;
#X connect 96 0 101 0;
#X connect 97 0 94 0;
#X connect 97 0 95 0;
#X connect 98 0 22 0;
#X connect 98 0 108 0;
#X connect 99 0 100 0;
#X connect 99 0 98 1;
#X connect 101 0 92 0;
#X connect 102 0 103 0;
#X connect 103 0 99 0;
#X connect 104 0 101 0;
#X connect 109 0 124 2;
#X connect 110 0 116 1;
#X connect 111 0 116 0;
#X connect 114 0 126 2;
#X connect 115 0 9 0;
#X connect 115 1 10 0;
#X connect 116 0 114 0;
#X connect 116 1 109 0;
#X connect 116 2 117 0;
#X connect 117 0 125 2;
#X connect 118 0 111 0;
#X connect 120 0 14 1;
#X connect 121 0 137 1;
#X connect 121 0 139 1;
#X connect 121 0 140 1;
#X connect 122 0 123 0;
#X connect 122 0 135 0;
#X connect 123 0 118 0;
#X connect 124 0 6 0;
#X connect 124 1 115 0;
#X connect 124 2 115 1;
#X connect 125 0 6 0;
#X connect 125 1 115 0;
#X connect 125 2 115 1;
#X connect 126 0 6 0;
#X connect 126 1 115 0;
#X connect 126 2 115 1;
#X connect 127 0 129 0;
#X connect 128 0 139 2;
#X connect 129 0 132 1;
#X connect 130 0 132 0;
#X connect 131 0 137 2;
#X connect 132 0 131 0;
#X connect 132 1 128 0;
#X connect 132 2 133 0;
#X connect 133 0 140 2;
#X connect 134 0 130 0;
#X connect 135 0 134 0;
#X connect 136 0 124 0;
#X connect 136 0 126 0;
#X connect 136 0 125 0;
#X connect 136 1 124 1;
#X connect 136 1 126 1;
#X connect 136 1 125 1;
#X connect 137 0 127 0;
#X connect 137 1 14 0;
#X connect 138 0 137 0;
#X connect 138 0 139 0;
#X connect 138 0 140 0;
#X connect 139 0 127 0;
#X connect 139 1 14 0;
#X connect 140 0 127 0;
#X connect 140 1 14 0;
#X coords 0 -1 1 1 272 174 1 639 22;
#X restore 333 383 pd volume-ctrl;
#X text 613 497 messages output in console;
#X msg 573 586 1;
#N canvas 0 264 434 317 delay-receive 0;
#X obj 86 104 outlet;
#X obj 150 110 outlet;
#X obj 153 67 r \$0-stop-read1;
#X obj 69 62 r \$0-stop-read;
#X obj 69 84 pipe 1000;
#X obj 153 89 pipe 1000;
#X connect 2 0 5 0;
#X connect 3 0 4 0;
#X connect 4 0 0 0;
#X connect 5 0 1 0;
#X restore 855 402 pd delay-receive;
#N canvas 0 258 434 317 s-output-signals 0;
#X obj 107 205 s~ signalL;
#X obj 178 205 s~ signalR;
#X obj 98 133 inlet~;
#X obj 203 135 inlet~;
#X connect 2 0 0 0;
#X connect 3 0 1 0;
#X restore 338 651 pd s-output-signals;
#N canvas 0 258 434 317 r-output-signals 0;
#X obj 107 205 r~ signalL;
#X obj 178 205 r~ signalR;
#X obj 116 239 outlet~;
#X obj 175 240 outlet~;
#X connect 0 0 2 0;
#X connect 1 0 3 0;
#X restore 430 588 pd r-output-signals;
#X msg 1028 441 \; pd dsp 0;
#X msg 964 440 \; pd dsp 1;
#X obj 1028 419 bng 15 250 50 0 empty empty off-dsp 0 -7 0 10 #ffffff
#000000 #000000;
#X obj 964 418 bng 15 250 50 0 empty empty on-dsp 0 -7 0 10 #ffffff
#000000 #000000;
#N canvas 0 258 434 317 r-output-signals 0;
#X obj 107 205 r~ signalL;
#X obj 178 205 r~ signalR;
#X obj 116 239 outlet~;
#X obj 175 240 outlet~;
#X connect 0 0 2 0;
#X connect 1 0 3 0;
#X restore 614 402 pd r-output-signals;
#N canvas 0 258 434 317 r-output-signals 0;
#X obj 107 205 r~ signalL;
#X obj 178 205 r~ signalR;
#X obj 116 239 outlet~;
#X obj 175 240 outlet~;
#X connect 0 0 2 0;
#X connect 1 0 3 0;
#X restore 891 501 pd r-output-signals;
#X obj 964 389 loadbang;
#X connect 5 0 8 0;
#X connect 6 0 9 0;
#X connect 7 0 10 0;
#X connect 11 0 12 0;
#X connect 13 0 15 0;
#X connect 14 0 15 1;
#X connect 17 0 16 0;
#X connect 18 0 32 0;
#X connect 18 1 32 1;
#X connect 22 0 21 0;
#X connect 23 0 22 0;
#X connect 24 0 30 0;
#X connect 25 0 26 0;
#X connect 28 0 18 0;
#X connect 28 1 18 1;
#X connect 28 2 18 0;
#X connect 28 3 18 1;
#X connect 28 4 18 0;
#X connect 28 5 18 1;
#X connect 30 0 23 0;
#X connect 31 0 19 1;
#X connect 31 1 19 1;
#X connect 33 0 4 0;
#X connect 33 0 21 0;
#X connect 33 1 4 1;
#X connect 33 1 21 0;
#X connect 36 0 34 0;
#X connect 37 0 35 0;
#X connect 38 0 19 0;
#X connect 38 1 19 0;
#X connect 39 0 13 0;
#X connect 39 1 14 0;
#X connect 40 0 37 0;
